<svg width="139" height="54" viewBox="0 0 139 54" fill="none" xmlns="http://www.w3.org/2000/svg">
<g filter="url(#filter0_ddd_2_363)">
<rect x="3" y="2" width="133" height="48" rx="6" fill="#24AFB5"/>
<path d="M20.4347 33V18.4545H26.0028C27.054 18.4545 27.9276 18.6203 28.6236 18.9517C29.3243 19.2784 29.8475 19.7259 30.1932 20.294C30.5436 20.8622 30.7188 21.5062 30.7188 22.2259C30.7188 22.8177 30.6051 23.3243 30.3778 23.7457C30.1506 24.1624 29.8452 24.5009 29.4616 24.7614C29.0781 25.0218 28.6496 25.2088 28.1761 25.3224V25.4645C28.6922 25.4929 29.187 25.6515 29.6605 25.9403C30.1387 26.2244 30.5294 26.6269 30.8324 27.1477C31.1354 27.6686 31.2869 28.2983 31.2869 29.0369C31.2869 29.7898 31.1046 30.4669 30.7401 31.0682C30.3755 31.6648 29.8262 32.1359 29.0923 32.4815C28.3584 32.8272 27.4351 33 26.3224 33H20.4347ZM23.0696 30.7983H25.9034C26.8598 30.7983 27.5488 30.616 27.9702 30.2514C28.3963 29.8821 28.6094 29.4086 28.6094 28.831C28.6094 28.4001 28.5028 28.0118 28.2898 27.6662C28.0767 27.3158 27.7737 27.0412 27.3807 26.8423C26.9877 26.6387 26.5189 26.5369 25.9744 26.5369H23.0696V30.7983ZM23.0696 24.6406H25.6761C26.1307 24.6406 26.5402 24.5578 26.9048 24.392C27.2694 24.2216 27.5559 23.9825 27.7642 23.6747C27.9773 23.3622 28.0838 22.9929 28.0838 22.5668C28.0838 22.0033 27.8849 21.5393 27.4872 21.1747C27.0942 20.8101 26.5095 20.6278 25.733 20.6278H23.0696V24.6406ZM40.2187 28.4119V22.0909H42.7897V33H40.2968V31.0611H40.1832C39.937 31.6719 39.5321 32.1714 38.9687 32.5597C38.41 32.9479 37.721 33.142 36.9019 33.142C36.187 33.142 35.5549 32.9834 35.0056 32.6662C34.4611 32.3442 34.035 31.8778 33.7272 31.267C33.4194 30.6515 33.2656 29.9081 33.2656 29.0369V22.0909H35.8366V28.6392C35.8366 29.3305 36.026 29.8797 36.4048 30.2869C36.7835 30.6941 37.2807 30.8977 37.8962 30.8977C38.275 30.8977 38.642 30.8054 38.9971 30.6207C39.3522 30.4361 39.6434 30.1615 39.8707 29.7969C40.1027 29.4276 40.2187 28.9659 40.2187 28.4119ZM50.681 22.0909V24.0795H44.4097V22.0909H50.681ZM45.958 19.4773H48.529V29.7188C48.529 30.0644 48.5811 30.3295 48.6852 30.5142C48.7941 30.6941 48.9362 30.8172 49.1114 30.8835C49.2866 30.9498 49.4807 30.983 49.6938 30.983C49.8547 30.983 50.0015 30.9711 50.1341 30.9474C50.2714 30.9238 50.3756 30.9025 50.4466 30.8835L50.8798 32.8935C50.7425 32.9408 50.546 32.9929 50.2903 33.0497C50.0394 33.1065 49.7316 33.1397 49.367 33.1491C48.7231 33.1681 48.1431 33.071 47.627 32.858C47.1109 32.6402 46.7013 32.304 46.3983 31.8494C46.1 31.3949 45.9532 30.8267 45.958 30.1449V19.4773ZM58.0786 22.0909V24.0795H51.8073V22.0909H58.0786ZM53.3556 19.4773H55.9266V29.7188C55.9266 30.0644 55.9787 30.3295 56.0829 30.5142C56.1918 30.6941 56.3338 30.8172 56.509 30.8835C56.6842 30.9498 56.8783 30.983 57.0914 30.983C57.2524 30.983 57.3992 30.9711 57.5317 30.9474C57.6691 30.9238 57.7732 30.9025 57.8442 30.8835L58.2775 32.8935C58.1402 32.9408 57.9437 32.9929 57.688 33.0497C57.4371 33.1065 57.1293 33.1397 56.7647 33.1491C56.1208 33.1681 55.5407 33.071 55.0246 32.858C54.5085 32.6402 54.099 32.304 53.796 31.8494C53.4977 31.3949 53.3509 30.8267 53.3556 30.1449V19.4773ZM64.6702 33.2131C63.6048 33.2131 62.6815 32.9787 61.9003 32.5099C61.119 32.0412 60.513 31.3854 60.0821 30.5426C59.656 29.6998 59.4429 28.715 59.4429 27.5881C59.4429 26.4612 59.656 25.474 60.0821 24.6264C60.513 23.7789 61.119 23.1207 61.9003 22.652C62.6815 22.1832 63.6048 21.9489 64.6702 21.9489C65.7355 21.9489 66.6588 22.1832 67.4401 22.652C68.2213 23.1207 68.825 23.7789 69.2511 24.6264C69.682 25.474 69.8974 26.4612 69.8974 27.5881C69.8974 28.715 69.682 29.6998 69.2511 30.5426C68.825 31.3854 68.2213 32.0412 67.4401 32.5099C66.6588 32.9787 65.7355 33.2131 64.6702 33.2131ZM64.6844 31.1534C65.262 31.1534 65.745 30.9948 66.1332 30.6776C66.5215 30.3556 66.8103 29.9247 66.9997 29.3849C67.1938 28.8452 67.2909 28.2438 67.2909 27.581C67.2909 26.9134 67.1938 26.3097 66.9997 25.7699C66.8103 25.2254 66.5215 24.7921 66.1332 24.4702C65.745 24.1482 65.262 23.9872 64.6844 23.9872C64.0925 23.9872 63.6001 24.1482 63.2071 24.4702C62.8188 24.7921 62.5277 25.2254 62.3335 25.7699C62.1441 26.3097 62.0494 26.9134 62.0494 27.581C62.0494 28.2438 62.1441 28.8452 62.3335 29.3849C62.5277 29.9247 62.8188 30.3556 63.2071 30.6776C63.6001 30.9948 64.0925 31.1534 64.6844 31.1534ZM74.4506 26.608V33H71.8796V22.0909H74.337V23.9446H74.4648C74.7158 23.3338 75.1159 22.8485 75.6651 22.4886C76.2191 22.1288 76.9033 21.9489 77.7177 21.9489C78.4705 21.9489 79.1263 22.1098 79.685 22.4318C80.2485 22.7538 80.6841 23.2202 80.9918 23.831C81.3043 24.4418 81.4582 25.1828 81.4535 26.054V33H78.8825V26.4517C78.8825 25.7225 78.6931 25.152 78.3143 24.7401C77.9402 24.3281 77.4218 24.1222 76.7589 24.1222C76.3091 24.1222 75.909 24.2216 75.5586 24.4205C75.2129 24.6146 74.9407 24.8963 74.7418 25.2656C74.5477 25.6349 74.4506 26.0824 74.4506 26.608Z" fill="white"/>
<path fill-rule="evenodd" clip-rule="evenodd" d="M112.667 16.8334C115.704 16.8334 118.167 19.2958 118.167 22.3334V29.6667C118.167 32.7043 115.704 35.1667 112.667 35.1667H105.333C102.296 35.1667 99.8333 32.7043 99.8333 29.6667V22.3334C99.8333 19.2958 102.296 16.8334 105.333 16.8334L112.667 16.8334ZM111.75 19.5834H106.25C104.286 19.5834 102.683 21.127 102.588 23.067L102.583 23.25V28.75C102.583 30.7137 104.127 32.3169 106.067 32.4122L106.25 32.4167H111.75C113.714 32.4167 115.317 30.8731 115.412 28.933L115.417 28.75V23.25C115.417 21.2864 113.873 19.6832 111.933 19.5879L111.75 19.5834Z" fill="white"/>
</g>
<defs>
<filter id="filter0_ddd_2_363" x="0" y="0" width="139" height="54" filterUnits="userSpaceOnUse" color-interpolation-filters="sRGB">
<feFlood flood-opacity="0" result="BackgroundImageFix"/>
<feColorMatrix in="SourceAlpha" type="matrix" values="0 0 0 0 0 0 0 0 0 0 0 0 0 0 0 0 0 0 127 0" result="hardAlpha"/>
<feOffset dy="1"/>
<feGaussianBlur stdDeviation="0.5"/>
<feColorMatrix type="matrix" values="0 0 0 0 0 0 0 0 0 0 0 0 0 0 0 0 0 0 0.04 0"/>
<feBlend mode="normal" in2="BackgroundImageFix" result="effect1_dropShadow_2_363"/>
<feColorMatrix in="SourceAlpha" type="matrix" values="0 0 0 0 0 0 0 0 0 0 0 0 0 0 0 0 0 0 127 0" result="hardAlpha"/>
<feOffset dy="2"/>
<feGaussianBlur stdDeviation="0.5"/>
<feColorMatrix type="matrix" values="0 0 0 0 0 0 0 0 0 0 0 0 0 0 0 0 0 0 0.03 0"/>
<feBlend mode="normal" in2="effect1_dropShadow_2_363" result="effect2_dropShadow_2_363"/>
<feColorMatrix in="SourceAlpha" type="matrix" values="0 0 0 0 0 0 0 0 0 0 0 0 0 0 0 0 0 0 127 0" result="hardAlpha"/>
<feOffset dy="1"/>
<feGaussianBlur stdDeviation="1.5"/>
<feColorMatrix type="matrix" values="0 0 0 0 0 0 0 0 0 0 0 0 0 0 0 0 0 0 0.05 0"/>
<feBlend mode="normal" in2="effect2_dropShadow_2_363" result="effect3_dropShadow_2_363"/>
<feBlend mode="normal" in="SourceGraphic" in2="effect3_dropShadow_2_363" result="shape"/>
</filter>
</defs>
</svg>
