<svg width="22" height="22" viewBox="0 0 22 22" fill="none" xmlns="http://www.w3.org/2000/svg">
<path fill-rule="evenodd" clip-rule="evenodd" d="M14.6667 1.83337C17.7042 1.83337 20.1667 4.29581 20.1667 7.33337V14.6667C20.1667 17.7043 17.7042 20.1667 14.6667 20.1667H7.33334C4.29578 20.1667 1.83334 17.7043 1.83334 14.6667V7.33337C1.83334 4.29581 4.29578 1.83337 7.33334 1.83337H14.6667ZM13.75 4.58337H8.25001C6.28633 4.58337 4.68319 6.12701 4.58783 8.06704L4.58334 8.25004V13.75C4.58334 15.7137 6.12698 17.3169 8.06701 17.4122L8.25001 17.4167H13.75C15.7137 17.4167 17.3168 15.8731 17.4122 13.933L17.4167 13.75V8.25004C17.4167 6.28636 15.873 4.68322 13.933 4.58786L13.75 4.58337Z" fill="#969696"/>
</svg>
